<?xml version="1.0" encoding="UTF-8"?>
<!DOCTYPE svg PUBLIC "-//W3C//DTD SVG 1.1//EN" "http://www.w3.org/Graphics/SVG/1.1/DTD/svg11.dtd">
<svg xmlns="http://www.w3.org/2000/svg" xml:space="preserve" width="2.66666in" height="2.66666in" version="1.1" viewBox="0 0 2667 2667" xmlns:xlink="http://www.w3.org/1999/xlink">
  <g id="_597579352">
    <circle fill="#D7D7D7" cx="1390" cy="1387" r="1277"/>
    <circle fill="#333333" cx="1277" cy="1279" r="1277"/>
  </g>
  <g id="Layer_x0020_1">
    <metadata id="CorelCorpID_0Corel-Layer"/>
    <path fill="white" d="M2005 1971l-216 0 0 -924 298 0c6,0 12,0 18,-1l0 825c0,55 -45,100 -100,100zm82 -950l-1507 0c-55,0 -100,-45 -100,-100l0 -126c0,-55 45,-99 100,-99l1507 0c55,0 100,44 100,99l0 126c0,55 -45,100 -100,100zm-678 633c14,0 27,-5 38,-13 20,-14 29,-36 26,-60l-7 -53 37 -39c16,-18 22,-41 14,-64 -7,-22 -25,-39 -49,-43l-52 -10 -26 -47c-12,-21 -33,-33 -57,-33 -23,0 -44,12 -56,33l-26 47 -53 10c-23,4 -41,20 -48,43 -8,23 -3,46 14,64l36 39 -6 53c-3,24 6,46 26,60 19,14 43,17 65,6l48 -22 49 22c9,4 18,7 27,7zm-76 -58c-2,0 -4,1 -5,2l-55 25c-12,6 -26,5 -38,-4 -11,-8 -17,-21 -15,-35l8 -59c0,-4 -1,-8 -4,-11l-41 -44c-9,-10 -12,-23 -8,-37 4,-13 15,-22 29,-25l58 -11c4,-1 8,-3 10,-7l28 -52c7,-13 19,-20 33,-20 14,0 26,7 33,20l29 52c2,4 5,6 9,7l59 11c14,3 24,12 29,25 4,14 1,27 -9,37l-41 44c-2,3 -4,7 -3,11l7 60c2,14 -3,26 -15,35 -11,8 -25,9 -38,3l-54 -25c-2,-1 -4,-2 -6,-2zm429 375l-159 0 0 -328 2 -3c21,-34 35,-72 42,-111l1 0c0,-3 0,-5 1,-8l0 0c0,-3 1,-5 1,-8l0 0c0,-3 1,-5 1,-8l0 0c0,-3 0,-5 1,-8l0 0 0 0c0,-8 1,-16 1,-25 0,-8 -1,-16 -1,-24l0 0 0 -1c-1,-2 -1,-4 -1,-7l0 -1c0,-2 -1,-4 -1,-7l0 -1c0,-2 -1,-5 -1,-7l0 0c-7,-42 -21,-83 -44,-119l-2 -3 0 -255 159 0 0 924zm-185 0l-487 0 0 -292c59,69 146,113 243,113 98,0 185,-44 244,-113l0 292zm-536 -483l0 -1c0,-2 0,-4 0,-6l0 -2c0,-2 0,-4 0,-6l0 0 0 -1c0,-2 0,-4 0,-6l0 -1c0,-2 0,-4 0,-7l0 -1c0,-2 0,-4 1,-6l0 -2 0 -4 1 -4 0 -3 0 0c0,-2 0,-3 1,-5l0 -2c3,-24 9,-46 18,-68l1 -2 1 -3c1,-2 2,-3 2,-5l1 -1c46,-101 148,-172 266,-172 156,0 284,123 292,277l0 1c1,2 1,4 1,6l0 2c0,2 0,4 0,6l0 0 0 1c0,2 0,4 0,6l0 1c0,2 0,4 -1,7l0 1c0,2 0,4 0,6l0 2 -1 4 0 4 0 3 0 0c0,2 -1,3 -1,5l0 2c-4,24 -10,46 -18,68l-1 2 -2 3c0,2 -1,3 -2,5l0 1c-46,101 -148,172 -267,172 -156,0 -284,-123 -292,-277zm49 -222l0 -219 487 0 0 219c-59,-69 -146,-113 -244,-113 -97,0 -184,44 -243,113zm-27 705l-159 0 0 -924 159 0 0 255 -1 3 -1 1 -1 2c-1,1 -2,3 -3,5l-1 1c-1,2 -2,4 -3,6l0 1c-1,2 -3,4 -4,6l0 1c-2,4 -4,9 -7,13l0 0 0 0c-1,2 -2,5 -2,7l-1 1c-1,2 -2,4 -2,6l-1 1c-1,2 -1,4 -2,6l-1 2c0,2 -1,3 -2,5l0 2c-1,2 -1,4 -2,5l-1 3 -1 4c-1,2 -1,3 -1,5l0 0 -1 3c-1,1 -1,3 -1,5l-1 1c0,2 -1,4 -1,7l-1 1c0,2 0,4 -1,6l0 2c-1,2 -1,4 -1,6l-1 2c0,2 0,4 0,5l-1 3c0,2 0,4 -1,5l0 4 0 3c0,2 -1,4 -1,5l0 3c0,2 0,4 0,6l0 2c-1,2 -1,5 -1,7l0 0 0 0 0 0c0,3 0,6 0,8l0 0 0 1c0,59 17,117 48,167l1 3 0 328zm-185 0l-216 0c-55,0 -100,-45 -100,-100l0 -825c6,1 12,1 18,1l298 0 0 924z"/>
  </g>
</svg>
