<svg xmlns="http://www.w3.org/2000/svg" viewBox="0 0 2667 2667">
  <g>
    <circle fill="#D7D7D7" cx="1390" cy="1387" r="1277"/>
    <circle fill="#333333" cx="1277" cy="1279" r="1277"/>
  </g>
  <g>
    <path fill="white" d="M749 1786l-206 0c-19,0 -36,-9 -48,-23 -13,-15 -18,-34 -14,-53l69 -324c9,7 21,12 34,12l280 0 18 0 35 0 27 50c6,12 2,26 -9,32 -4,2 -7,3 -11,3 -9,0 -16,-5 -21,-12l-26 -49 -67 313c-6,30 -31,51 -61,51zm163 -192l-44 0 9 -46 35 0c50,0 91,-41 91,-92l0 -58 47 0 0 58c0,76 -62,138 -138,138zm742 -603l0 -35c0,-13 10,-23 23,-23 13,0 24,10 24,23l0 40c24,9 41,33 41,60l0 152c0,36 -29,65 -65,65l-1149 0c-13,0 -23,-10 -23,-23l0 -73c7,3 15,5 23,5l916 0c57,0 102,-46 102,-102l0 -65c0,-9 -2,-17 -5,-24l113 0zm-1006 -26l42 -72c4,-7 12,-12 20,-12l54 0c13,0 24,11 24,23l0 61 -140 0zm796 191l-916 0c-13,0 -23,-11 -23,-24 0,-77 63,-141 141,-141l850 0c13,0 24,11 24,24l0 65c0,42 -34,76 -76,76zm200 21c8,0 14,-6 14,-13l0 -64c0,-7 -6,-13 -14,-13 -7,0 -13,6 -13,13l0 64c0,7 6,13 13,13zm519 38l-395 0c0,-2 1,-4 1,-7l0 -152c0,-2 -1,-5 -1,-7l395 0c13,0 24,11 24,24l0 119c0,13 -11,23 -24,23zm-500 157l-1079 0c-13,0 -24,-11 -24,-24l0 -48 1117 0c3,0 7,0 10,-1l0 49c0,13 -11,24 -24,24zm-947 354c6,0 12,-4 13,-10l54 -255c1,-4 0,-8 -2,-11 -3,-3 -7,-5 -11,-5l-124 0c-6,0 -12,4 -13,10l-54 255c-1,4 0,8 3,11 2,4 6,5 10,5l124 0zm-107 -26l48 -229 97 0 -49 229 -96 0z"/>
  </g>
</svg>
