<svg xmlns="http://www.w3.org/2000/svg" viewBox="0 0 2667 2667">
  <g>
    <circle fill="#D7D7D7" cx="1390" cy="1387" r="1277"/>
    <circle fill="#333333" cx="1277" cy="1279" r="1277"/>
  </g>
  <g>
    <path fill="white" d="M531 630c-20,-33 -36,-64 -49,-92 -3,-7 -3,-16 2,-22 5,-7 12,-11 21,-11 15,1 386,25 665,350l463 522c-6,4 -12,9 -17,14l-60 60 -460 -519c-135,-153 -312,-268 -508,-325 -20,-6 -41,1 -54,18 -1,2 -2,3 -3,5zm1479 1531c-38,0 -75,-14 -104,-43l-333 -333 207 -206 386 385c28,28 28,74 0,102l-53 52c-28,29 -66,43 -103,43zm9 -138c4,0 7,-1 10,-4 5,-5 5,-14 0,-19l-279 -279c-5,-5 -14,-5 -19,0 -5,5 -5,14 0,19l279 279c3,3 6,4 9,4zm-533 -221c-20,0 -41,-8 -56,-23l-26 -26c-15,-15 -23,-35 -23,-56 0,-21 8,-41 23,-56l231 -231c31,-31 82,-31 113,0l25 25c31,31 31,82 0,113l-231 231c-15,15 -36,23 -56,23zm-115 -163c-129,-136 -610,-650 -816,-971 -6,-9 -5,-19 1,-27 5,-8 15,-11 25,-8 136,39 332,126 495,316l462 521 -152 152c-6,5 -11,11 -15,17z"/>
  </g>
</svg>
