<svg xmlns="http://www.w3.org/2000/svg" viewBox="0 0 2667 2667">
  <g>
    <circle fill="#D7D7D7" cx="1390" cy="1387" r="1277"/>
    <circle fill="#333333" cx="1277" cy="1279" r="1277"/>
  </g>
  <g>
    <path fill="white" d="M1702 1933l-979 0c-134,0 -243,-109 -243,-243 0,-134 109,-243 243,-243l979 0c134,0 242,109 242,243 0,134 -109,243 -242,243zm445 -878l-192 0c-13,0 -24,-11 -24,-24l0 -115c0,-13 11,-23 24,-23l192 0c22,0 40,17 40,39l0 83c0,22 -18,40 -40,40zm-237 0l-423 0c1,-6 2,-12 2,-18l0 -126c0,-6 -1,-12 -2,-18l423 0c-3,7 -5,15 -5,23l0 115c0,9 2,17 5,24zm-1119 -224c20,-56 74,-97 137,-97l310 0c13,0 24,10 24,23l0 72 -456 0c-5,0 -10,0 -15,2zm615 261l-567 0c-31,0 -56,-25 -56,-55l0 -158c0,-13 10,-24 23,-24l600 0c31,0 56,25 56,56l0 126c0,30 -25,55 -56,55zm-515 123l0 -96 463 0 0 96 -463 0zm-184 206c3,-5 6,-10 8,-16 47,-93 87,-164 135,-164l724 0c48,0 88,71 135,164 3,6 5,11 8,16 -5,0 -10,-1 -15,-1l-979 0c-5,0 -11,1 -16,1zm177 334c36,0 65,-29 65,-65 0,-36 -29,-66 -65,-66 -36,0 -66,30 -66,66 0,36 30,65 66,65zm0 -104c21,0 39,18 39,39 0,21 -18,39 -39,39 -22,0 -39,-18 -39,-39 0,-21 17,-39 39,-39zm328 104c36,0 66,-29 66,-65 0,-36 -30,-66 -66,-66 -36,0 -65,30 -65,66 0,36 29,65 65,65zm0 -104c22,0 39,18 39,39 0,21 -17,39 -39,39 -21,0 -39,-18 -39,-39 0,-21 18,-39 39,-39zm329 104c36,0 65,-29 65,-65 0,-36 -29,-66 -65,-66 -37,0 -66,30 -66,66 0,36 29,65 66,65zm0 -104c21,0 38,18 38,39 0,21 -17,39 -38,39 -22,0 -39,-18 -39,-39 0,-21 17,-39 39,-39zm161 183c79,0 144,-65 144,-144 0,-80 -65,-144 -144,-144l-490 0 -489 0c-80,0 -145,64 -145,144 1,80 65,144 145,144l161 0 328 0 329 0 161 0zm-979 -262l78 0c-37,26 -61,69 -61,118 0,48 24,91 60,117l-77 0c-65,0 -118,-52 -118,-117 0,-65 53,-118 118,-118zm161 0l0 0c65,0 118,53 118,118 0,65 -53,117 -118,117 -65,0 -118,-52 -118,-117 0,-65 53,-118 118,-118zm83 0l162 0c-37,26 -61,69 -61,118 0,48 24,91 61,117l-161 0c36,-26 60,-69 60,-117 0,-49 -24,-92 -61,-118zm244 0l0 0c64,0 117,53 117,118 0,65 -53,117 -117,117 -65,0 -118,-52 -118,-117 0,-65 53,-118 117,-118zm84 0l161 0c-37,26 -61,69 -61,118 0,48 24,91 61,117l-161 0c37,-26 61,-69 61,-117 0,-49 -25,-92 -61,-118zm244 0l1 0c64,0 117,53 117,118 0,65 -53,117 -117,117 -65,0 -118,-52 -118,-117 0,-65 53,-118 117,-118zm84 0l78 0c65,0 117,53 117,118 0,65 -52,117 -117,117l-78 0c37,-26 61,-69 61,-117 0,-49 -24,-92 -61,-118z"/>
  </g>
</svg>
