<?xml version="1.0" encoding="UTF-8"?>
<!DOCTYPE svg PUBLIC "-//W3C//DTD SVG 1.1//EN" "http://www.w3.org/Graphics/SVG/1.1/DTD/svg11.dtd">
<svg xmlns="http://www.w3.org/2000/svg" xml:space="preserve" width="2.66666in" height="2.66666in" version="1.1"
viewBox="0 0 2667 2667" xmlns:xlink="http://www.w3.org/1999/xlink">
  <g id="_597579352">
    <circle fill="#D7D7D7" cx="1390" cy="1387" r="1277"/>
    <circle fill="#333333" cx="1277" cy="1279" r="1277"/>
  </g>
  <g id="Layer_x0020_1">
    <metadata id="CorelCorpID_0Corel-Layer"/>
    <path fill="white" d="M932 1873l-232 0c-41,0 -74,-33 -74,-74l0 -714c0,-41 33,-74 74,-74l232 0c41,0 74,33 74,74l0 714c0,41 -33,74 -74,74zm-229 -1068c-5,-64 4,-179 94,-315 4,-6 11,-10 19,-10 8,0 15,4 19,10 91,136 99,251 95,315 -11,-5 -23,-7 -36,-7l-157 0c-12,0 -24,2 -34,7zm517 0c-5,-64 4,-179 94,-315 4,-6 12,-10 19,-10 8,0 15,4 20,10 90,136 99,251 94,315 -11,-5 -23,-7 -35,-7l-157 0c-13,0 -24,2 -35,7zm517 0c-4,-64 4,-179 94,-315 5,-6 12,-10 20,-10 7,0 15,4 19,10 90,136 99,251 94,315 -10,-5 -22,-7 -35,-7l-157 0c-12,0 -24,2 -35,7zm-1056 181l0 -105c0,-31 25,-57 56,-57l157 0c32,0 57,26 57,57l0 105c-6,-1 -13,-2 -19,-2l-232 0c-7,0 -13,1 -19,2zm517 0l0 -105c0,-31 26,-57 57,-57l157 0c31,0 56,26 56,57l0 105c-6,-1 -12,-2 -19,-2l-232 0c-6,0 -12,1 -19,2zm518 0l0 -105c0,-31 25,-57 56,-57l157 0c31,0 57,26 57,57l0 105c-7,-1 -13,-2 -19,-2l-232 0c-7,0 -13,1 -19,2zm-769 1201l-262 0c-52,0 -94,-43 -94,-95 0,-52 42,-94 94,-94l262 0c52,0 95,42 95,94 0,52 -43,95 -95,95zm517 0l-262 0c-52,0 -94,-43 -94,-95 0,-52 42,-94 94,-94l263 0c52,0 94,42 94,94 0,52 -42,95 -95,95zm518 0l-263 0c-52,0 -94,-43 -94,-95 0,-52 42,-94 94,-94l263 0c52,0 94,42 94,94 0,52 -42,95 -94,95zm-1298 -216l0 -72c5,0 10,1 16,1l232 0c5,0 11,-1 16,-1l0 72 -1 0 -262 0 -1 0zm517 0l0 -72c6,0 11,1 16,1l232 0c6,0 11,-1 16,-1l0 72 0 0 -263 0 -1 0zm248 -98l-232 0c-41,0 -74,-33 -74,-74l0 -714c0,-41 33,-74 74,-74l232 0c41,0 75,33 75,74l0 714c0,41 -34,74 -75,74zm518 0l-232 0c-41,0 -75,-33 -75,-74l0 -714c0,-41 34,-74 75,-74l232 0c41,0 74,33 74,74l0 714c0,41 -33,74 -74,74zm-248 98l0 -72c5,0 10,1 16,1l232 0c5,0 10,-1 16,-1l0 72 -1 0 -263 0 0 0zm132 -250c7,0 13,-6 13,-13l0 -532c0,-7 -6,-13 -13,-13 -8,0 -14,6 -14,13l0 532c0,7 6,13 14,13zm-518 0c8,0 14,-6 14,-13l0 -532c0,-7 -6,-13 -14,-13 -7,0 -13,6 -13,13l0 532c0,7 6,13 13,13zm-517 0c7,0 13,-6 13,-13l0 -532c0,-7 -6,-13 -13,-13 -7,0 -13,6 -13,13l0 532c0,7 6,13 13,13z"/>
  </g>
</svg>
