<?xml version="1.0" encoding="UTF-8"?>
<svg xmlns="http://www.w3.org/2000/svg" xml:space="preserve" width="100%" height="100%" 
     viewBox="0 0 2000 2000">
    <g>
        <circle fill="#D7D7D7" cx="1000" cy="1000" r="950"/>
        <circle fill="#333333" cx="950" cy="950" r="950"/>
    </g>
    <g>
        <path fill="white" d="M650 1000l0 -295 218 0c-22,44 -35,94 -35,147 0,53 13,103 35,148l-218 0zm352 706c-104,0 -188,-85 -188,-188l0 -1 45 0 45 0 196 0 43 0 10 0 0 112c-34,47 -89,77 -151,77zm178 -189l10 0 43 0 196 0 90 0 0 1c0,103 -85,188 -188,188 -62,0 -117,-30 -151,-77l0 -112zm-366 -1330l0 0c0,-104 84,-188 188,-188 62,0 117,30 151,76l0 112 -10 0 -43 0 -1 0 -195 0 -90 0zm366 -112c34,-46 89,-76 151,-76 103,0 188,84 188,188l0 0 -90 0 -1 0 -195 0 -43 0 -10 0 0 -112zm-27 1083c-46,-2 -89,-14 -128,-34l41 -71c3,-6 1,-14 -5,-18 -6,-3 -15,-1 -18,5l-41 71c-38,-24 -70,-56 -94,-94l71 -41c6,-4 8,-12 5,-18 -4,-6 -12,-9 -19,-5l-70 41c-21,-39 -33,-82 -35,-128l82 0c7,0 13,-6 13,-14 0,-7 -6,-13 -13,-13l-82 0c2,-46 15,-89 35,-128l70 41c7,3 15,1 19,-5 3,-7 1,-15 -5,-18l-71 -41c24,-38 56,-70 94,-94l41 71c3,6 11,8 18,5 6,-4 8,-12 5,-19l-41 -70c39,-21 82,-33 128,-35l0 82c0,7 6,13 13,13 8,0 14,-6 14,-13l0 -82c46,2 89,14 128,35l-41 70c-4,7 -1,15 5,19 6,3 15,1 18,-5l41 -71c38,24 70,56 94,94l-71 41c-6,3 -8,11 -5,18 4,6 12,8 18,5l71 -41c20,38 33,82 35,128l-82 0c-8,0 -13,6 -13,13 0,8 6,14 13,14l81 0c-2,46 -14,89 -34,128l-71 -41c-6,-4 -14,-2 -18,5 -3,6 -1,14 5,18l71 41c-24,38 -56,70 -94,94l-41 -71c-4,-6 -12,-9 -18,-5 -6,4 -9,12 -5,18l41 71c-39,20 -82,32 -128,34l0 -81c0,-8 -6,-14 -14,-14 -7,0 -13,6 -13,14l0 81zm13 -292c8,0 14,-6 14,-14l0 -134c0,-8 -6,-13 -14,-13 -7,0 -13,5 -13,13l0 121 -108 0c-8,0 -14,6 -14,13 0,8 6,14 14,14l121 0zm544 391l-1087 0c-34,0 -62,-28 -62,-62l0 -107c0,-34 28,-61 62,-61l260 0c58,95 164,158 283,158 120,0 225,-63 284,-158l260 0c34,0 61,27 61,61l0 107c1,34 -27,62 -61,62zm0 -579l-260 0c-59,-95 -164,-159 -284,-159 -119,0 -225,64 -283,159l-260 0c-34,0 -62,-27 -62,-61l0 -108c0,-33 28,-61 62,-61l1087 0c34,0 61,28 61,61l0 108c1,34 -27,61 -61,61zm-148 813l-133 0c-33,0 -63,-14 -85,-35l0 -173 10 0 329 0 0 86c0,67 -55,122 -121,122zm-244 -35c-22,21 -52,35 -85,35l-133 0c-33,0 -63,-14 -85,-35l0 -173 10 0 283 0 10 0 0 173zm-329 0c-22,21 -52,35 -85,35l-133 0c-67,0 -121,-55 -121,-122l0 -86 329 0 10 0 0 173zm476 -456c22,-45 34,-95 34,-148 0,-53 -12,-103 -34,-147l218 0 0 295 -218 0zm-815 -579l0 -86c0,-67 54,-121 121,-121l133 0c33,0 63,13 85,34l0 173 -10 0 -329 0zm365 -173c22,-21 52,-34 85,-34l133 0c33,0 63,13 85,35l0 172 -293 0 -10 0 0 -173zm329 1c22,-22 52,-35 85,-35l133 0c67,0 121,54 121,121l0 86 -329 0 -10 0 0 -172z"/>
    </g>
</svg>
