<?xml version="1.0" encoding="UTF-8"?>
<svg xmlns="http://www.w3.org/2000/svg" width="2.66666in" height="2.66666in" viewBox="0 0 2667 2667">
  <g>
    <circle fill="#D7D7D7" cx="1390" cy="1387" r="1277"/>
    <circle fill="#333333" cx="1277" cy="1279" r="1277"/>
  </g>
  <g>
    <path fill="white" d="M2021 2071l-1376 0c-73,0 -132,-59 -132,-133l0 -170 251 0c8,0 14,-6 14,-13 0,-7 -6,-13 -14,-13l-251 0 0 -385 457 0c7,0 13,-6 13,-14 0,-7 -6,-13 -13,-13l-457 0 0 -170c0,-73 59,-132 132,-132l351 0c13,0 23,10 23,23l0 83c0,14 12,25 25,25l578 0c14,0 25,-11 25,-25l0 -83c0,-13 11,-24 24,-24l350 1c74,0 133,59 133,132l0 170 -457 0c-8,0 -14,6 -14,13 0,8 6,14 14,14l457 0 0 385 -252 0c-7,0 -13,6 -13,13 0,7 6,13 13,13l252 0 0 170c0,73 -59,133 -133,133zm-414 -1331l-553 0c-34,0 -66,-13 -90,-35 16,-41 55,-69 101,-69l542 0c43,0 80,24 98,60 -25,27 -60,44 -98,44zm136 155l0 -150c0,-75 -61,-136 -136,-136l-542 0c-75,0 -136,61 -136,136l0 150 -129 0 0 -150c1,-146 119,-265 265,-265l542 0c146,0 265,119 265,265l0 150 -129 0zm-1032 106l0 -30c0,-27 22,-50 50,-50l209 0c27,0 49,23 49,50l0 36c-7,-4 -14,-6 -23,-6l-285 0zm936 6l0 -36c0,-27 23,-50 50,-50l209 0c28,0 50,23 50,50l0 30 -285 0c-9,0 -17,2 -24,6zm-785 1180l-173 0c-31,0 -56,-25 -56,-56l0 -34c4,0 8,1 12,1l273 0 0 33c0,31 -25,56 -56,56zm1116 0l-174 0c-30,0 -55,-25 -55,-56l0 -33 272 0c4,0 9,-1 13,-1l0 34c-1,31 -25,56 -56,56zm-645 -353c41,0 74,-33 74,-73l0 -73 72 0c40,0 73,-32 73,-73 0,-40 -33,-73 -73,-73l-72 0 0 -73c0,-40 -33,-73 -74,-73 -40,0 -73,33 -73,73l0 73 -72 0c-41,0 -74,33 -74,73 0,41 33,73 74,73l72 0 0 73c0,40 33,73 73,73zm-145 -266l85 0c8,0 14,-5 14,-13l0 -86c0,-25 20,-46 46,-46 26,0 47,21 47,46l0 86c0,8 6,13 13,13l86 0c26,0 47,21 47,47 0,26 -21,47 -47,47l-86 0c-7,0 -13,6 -13,13l0 86c0,26 -21,46 -47,46 -26,0 -46,-20 -46,-46l0 -86c0,-7 -6,-13 -14,-13l-85 0c-26,0 -47,-21 -47,-47 0,-26 21,-47 47,-47zm145 369c178,0 322,-144 322,-322 0,-177 -144,-322 -322,-322 -177,0 -322,145 -322,322 0,178 145,322 322,322zm0 -617c163,0 296,132 296,295 0,163 -133,295 -296,295 -162,0 -295,-132 -295,-295 0,-163 133,-295 295,-295z"/>
  </g>
</svg>
