<?xml version="1.0" encoding="UTF-8"?>
<svg xmlns="http://www.w3.org/2000/svg" xml:space="preserve" width="2.66666in" height="2.66666in" version="1.1" viewBox="0 0 2667 2667" xmlns:xlink="http://www.w3.org/1999/xlink">
  <g id="_597579352">
    <circle fill="#D7D7D7" cx="1390" cy="1387" r="1277"/>
    <circle fill="#333333" cx="1277" cy="1279" r="1277"/>
  </g>
  <g id="Layer_x0020_1">
    <metadata id="CorelCorpID_0Corel-Layer"/>
    <path fill="white" d="M1333 2022c-7,0 -14,-4 -18,-9l-168 -218c-4,-5 -5,-11 -5,-17l107 -1023c1,-12 11,-21 23,-21l123 0c12,0 22,9 23,21l106 1023c1,6 -1,12 -4,17l-168 218c-5,5 -11,9 -19,9zm205 -832l0 -51c0,-13 10,-24 23,-24 13,0 23,11 23,24l0 106 113 133 0 -81c0,-13 11,-24 24,-24 12,0 23,11 23,24l0 136 108 128 0 -122c0,-13 11,-23 24,-23 13,0 23,10 23,23l0 185c0,1 0,1 0,2l0 196 -391 -461 -25 -235 55 64zm-455 55l0 -106c0,-13 10,-24 23,-24 13,0 23,11 23,24l0 51 54 -64 -24 235 -391 460 0 -182 0 -15 0 0 0 -169c0,-13 10,-24 23,-24 13,0 23,11 23,24l0 105 109 -127 0 -136c0,-13 10,-24 23,-24 13,0 23,11 23,24l0 81 114 -133zm160 -529c-2,-49 8,-131 71,-226 4,-6 12,-10 19,-10 8,0 15,4 20,10 63,95 73,177 71,226 -9,-5 -18,-9 -29,-9l-123 0c-11,0 -21,4 -29,9zm77 1471l-353 0c-13,0 -24,-11 -24,-24l0 -153c0,-10 6,-18 14,-22l229 -99 108 140c4,6 10,10 16,14l0 0 1 0 0 0 0 0 0 0 0 0 1 1 0 0 0 0 0 0 1 0 0 0 0 0 0 0 1 0 0 0 0 1 0 0 0 0 1 0 0 0 1 0 0 0 0 0 0 1 1 0 0 0 0 0 1 0 0 0 0 0 0 0 0 0 1 0 0 0 0 0 0 0 1 1 0 0 0 0 0 140zm27 -140l0 0 0 0 0 -1 0 0 1 0 0 0 0 0 0 0 1 0 0 0 0 0 0 0 1 0 0 0 0 0 0 -1 1 0 0 0 0 0 1 0 0 0 0 0 0 0 0 0 1 0 0 -1 0 0 0 0 0 0 1 0 0 0 0 0 0 0 1 0 0 0 0 -1 0 0 0 0 1 0 0 0 0 0 0 0 1 0 0 0c6,-4 12,-8 16,-14l108 -140 228 99c9,4 14,12 14,22l0 153c0,13 -10,24 -23,24l-353 0 0 -140zm529 -70c-4,0 -7,-1 -10,-2l-333 -154 8 -10c7,-10 11,-23 10,-36l-38 -367 386 456 0 90c0,8 -4,15 -11,19 -4,3 -8,4 -12,4zm-1085 0c-4,0 -9,-1 -12,-4 -7,-4 -11,-11 -11,-19l0 -92 386 -454 -38 367c-1,13 2,26 10,36l8 10 -333 154c-3,1 -7,2 -10,2zm542 -586c8,0 14,-6 14,-13l0 -373c0,-7 -6,-13 -14,-13 -7,0 -13,6 -13,13l0 373c0,7 6,13 13,13z"/>
  </g>
</svg>
