<?xml version="1.0" encoding="UTF-8"?>
<svg xmlns="http://www.w3.org/2000/svg" width="2.66666in" height="2.66666in" viewBox="0 0 2667 2667">
  <g>
    <circle fill="#D7D7D7" cx="1390" cy="1387" r="1277"/>
    <circle fill="#333333" cx="1277" cy="1279" r="1277"/>
  </g>
  <g>
    <path fill="white" d="M1124 2145l-154 0c-5,0 -11,-2 -15,-6 -14,-12 -21,-25 -21,-39 1,-23 19,-37 36,-51 23,-18 46,-37 46,-69 0,-47 1,-88 3,-125 6,-162 10,-252 -136,-400 -132,-143 -163,-376 -169,-452 -38,2 -77,-3 -105,-7 -67,-10 -131,-65 -129,-111 0,-11 6,-46 63,-50 75,-5 106,-47 136,-89 13,-18 25,-35 41,-49 31,-27 89,-43 135,-45 9,-42 37,-111 72,-128 6,-3 14,-3 20,0 45,22 71,112 75,163 64,43 73,100 81,146 8,45 13,78 59,98l0 315c0,50 40,90 90,90l92 0c19,36 56,60 99,60 43,0 80,-24 98,-60l93 0c50,0 90,-40 90,-90l0 -259c132,0 245,47 313,129 56,68 75,155 55,249 -8,39 -19,66 -30,90 -7,16 -13,30 -17,45 -16,59 1,90 24,134 29,54 64,122 33,257 -1,6 -3,13 -4,20 -16,71 -35,160 -114,189 -25,9 -55,8 -82,7 -7,0 -13,0 -19,0 -9,0 -17,-5 -21,-13 -7,-15 -17,-53 40,-86 50,-29 55,-54 57,-118 3,-67 -37,-105 -88,-152 -37,-34 -80,-74 -110,-132 -33,-62 -62,-134 -76,-172 -128,64 -394,104 -480,115 -24,-54 -45,-105 -43,-174 0,-7 -5,-13 -13,-13 -7,-1 -13,5 -14,13 -2,80 25,137 54,202 -9,71 -19,230 -27,434 0,6 0,17 1,28 4,42 8,101 -37,106 -1,0 -1,0 -2,0zm886 -1093c42,-70 84,-161 88,-259 0,-10 6,-18 15,-21 9,-3 19,-1 26,7 5,6 122,145 -29,413 -12,-33 -29,-65 -53,-93 -14,-18 -30,-33 -47,-47zm-645 266c0,0 0,0 0,-1 -4,-10 -6,-21 -6,-32l0 -95 169 0 0 95c0,11 -2,22 -6,31 -1,1 -1,2 -2,3 -13,30 -43,50 -77,50 -35,0 -65,-21 -78,-51zm-31 -8l-82 0c-35,0 -63,-29 -63,-64l0 -305c153,49 429,48 509,47l0 258c0,35 -29,64 -64,64l-83 0c2,-8 3,-16 3,-25l0 -108c0,-8 -6,-14 -13,-14l-196 0c-7,0 -13,6 -13,14l0 108c0,9 1,17 2,25z"/>
  </g>
</svg>
