<?xml version="1.0" encoding="UTF-8"?>
<svg xmlns="http://www.w3.org/2000/svg" width="2.66666in" height="2.66666in" viewBox="0 0 2667 2667">
  <g>
    <circle fill="#D7D7D7" cx="1390" cy="1387" r="1277"/>
    <circle fill="#333333" cx="1277" cy="1279" r="1277"/>
  </g>
  <g>
    <path fill="white" d="M1333 1869c-94,0 -188,-11 -277,-34 -11,-3 -18,-12 -18,-23l0 -670c0,-13 11,-24 23,-24l544 0c13,0 24,11 24,24l0 670c0,11 -7,20 -18,23 -89,23 -183,34 -278,34zm340 -1273l0 -72c0,-12 10,-23 23,-23 13,0 24,11 24,23l0 95 0 199c0,8 -4,15 -9,19l-156 120c-5,3 -10,5 -15,5l-87 0c4,-7 6,-15 6,-23l0 -343 214 0zm-726 20l0 -92c0,-12 11,-23 23,-23 13,0 24,11 24,23l0 72 214 0 0 343c0,8 2,16 5,23l-87 0c-5,0 -10,-2 -14,-5l-156 -120c-6,-4 -9,-11 -9,-19l0 -199c0,-1 0,-2 0,-3zm462 346l-151 0c-13,0 -24,-10 -24,-23l0 -360c0,-55 45,-99 99,-99 55,0 100,44 100,99l0 360c0,13 -11,23 -24,23zm-371 135l0 -130c0,-10 3,-19 8,-27l50 38c9,7 19,11 30,11l132 0 282 0c11,0 22,-4 31,-11l50 -38c5,8 8,17 8,27l0 130c-7,-3 -15,-5 -24,-5l-544 0c-8,0 -16,2 -23,5zm295 1090c-174,0 -231,-174 -276,-314l-4 -11c92,23 186,34 280,34 94,0 189,-11 280,-34l-3 11c-45,140 -102,314 -277,314z"/>
  </g>
</svg>

