<svg xmlns="http://www.w3.org/2000/svg" viewBox="0 0 2667 2667">
  <g>
    <circle fill="#D7D7D7" cx="1390" cy="1387" r="1277"/>
    <circle fill="#333333" cx="1277" cy="1279" r="1277"/>
  </g>
  <g>
    <path fill="white" d="M1333 2187c-312,0 -566,-254 -566,-566 0,-312 254,-566 566,-566 312,0 566,254 566,566 0,312 -254,566 -566,566zm-110 -1148l314 -547c4,-8 12,-12 20,-12l248 0c8,0 16,4 20,12 4,7 4,16 0,23l-311 542c-57,-19 -118,-29 -181,-29 -37,0 -74,4 -110,11zm-70 18l-311 -542c-4,-7 -4,-16 0,-23 4,-8 12,-12 20,-12l248 0c8,0 16,4 20,12l188 327 -130 228c-12,3 -24,6 -35,10zm279 771c12,0 23,-4 33,-11 18,-13 26,-35 21,-58l-20 -79 63 -53c17,-15 24,-37 16,-59 -7,-22 -25,-36 -48,-38l-82 -6 -31 -76c-8,-21 -28,-34 -51,-34 -23,0 -42,13 -51,34l-31 76 -81 6c-23,2 -42,16 -49,38 -7,22 -1,44 17,59l63 53 -20 79c-5,23 3,45 21,58 19,14 42,15 62,2l69 -43 70 43c9,6 19,9 29,9zm-99 -81c-2,0 -4,1 -6,2l-77 48c-10,6 -22,6 -31,-1 -10,-7 -14,-18 -11,-30l21 -88c2,-5 0,-10 -4,-13l-69 -58c-9,-8 -12,-19 -9,-31 4,-11 13,-18 25,-19l90 -7c5,0 9,-3 11,-8l34 -84c5,-11 15,-17 27,-17 12,0 22,6 26,17l34 84c2,5 6,8 11,8l90 7c12,1 22,8 25,19 4,12 1,23 -8,31l-69 58c-4,3 -6,8 -5,13l22 88c3,12 -2,23 -11,30 -10,7 -22,7 -32,1l-77 -48c-2,-1 -4,-2 -7,-2zm0 307c239,0 433,-194 433,-433 0,-239 -194,-433 -433,-433 -238,0 -433,194 -433,433 0,239 195,433 433,433zm0 -839c224,0 407,182 407,406 0,224 -183,406 -407,406 -224,0 -406,-182 -406,-406 0,-224 182,-406 406,-406z"/>
  </g>
</svg>
