<svg xmlns="http://www.w3.org/2000/svg" viewBox="0 0 2667 2667">
  <g>
    <circle fill="#D7D7D7" cx="1390" cy="1387" r="1277"/>
    <circle fill="#333333" cx="1277" cy="1279" r="1277"/>
  </g>
  <g>
    <path fill="white" d="M722 1474c23,-158 107,-302 232,-400l503 0c8,0 14,-6 14,-13 0,-8 -6,-14 -14,-14l-466 0 0 -21c0,-47 38,-85 85,-85l525 0c47,0 85,38 85,85l0 21c145,98 243,254 269,427l-1233 0zm1259 249l-1286 0c-61,0 -111,-50 -111,-111 0,-62 50,-112 111,-112l1287 0c61,0 111,50 111,112 0,61 -50,111 -112,111zm-1318 -488c-49,0 -89,-40 -89,-90l0 -272c0,-25 9,-47 27,-65l316 -303c17,-17 38,-25 62,-25l603 0c50,0 90,40 90,90 0,49 -40,89 -90,89l-567 0 -262 252 0 234c0,50 -40,90 -90,90zm872 -430l-633 0 124 -119 532 0 0 96c0,12 -10,23 -23,23zm-417 109l0 -82 417 0c8,0 16,-2 23,-6l0 88 -440 0zm220 1273c-276,0 -514,-178 -594,-438l1189 0c-80,260 -319,438 -595,438z"/>
  </g>
</svg>
