<?xml version="1.0" encoding="UTF-8"?>
<svg xmlns="http://www.w3.org/2000/svg" width="2.66666in" height="2.66666in" viewBox="0 0 2667 2667">
  <g>
    <circle fill="#D7D7D7" cx="1390" cy="1387" r="1277"/>
    <circle fill="#333333" cx="1277" cy="1279" r="1277"/>
  </g>
  <g>
    <path fill="white" d="M1333 1699c-2,0 -5,0 -8,-1 -213,-78 -355,-414 -355,-530 0,-7 3,-14 8,-18 30,-25 60,-57 89,-87 30,-31 61,-63 91,-90 7,-6 17,-7 26,-4 95,44 204,44 299,0 9,-3 18,-2 25,4 31,27 62,59 92,90 29,30 59,62 89,87 5,4 8,11 8,18 0,115 -142,452 -355,530 -3,1 -6,1 -9,1zm-355 -382l-348 0c-83,0 -150,-67 -150,-149 0,-13 10,-24 23,-24l446 0c-3,7 -5,15 -5,24 0,46 17,104 34,149zm58 126l-154 0c-65,0 -120,-41 -141,-99l247 0c14,34 30,67 48,99zm84 127l-71 0c-65,0 -120,-42 -141,-100l143 0c13,21 26,42 40,62 9,13 19,25 29,38zm917 -253l-348 0c17,-45 34,-103 34,-149 0,-9 -2,-16 -5,-24l445 0c13,0 24,11 24,24 0,82 -67,149 -150,149zm-252 126l-153 0c18,-32 34,-65 47,-99l247 0c-21,58 -76,99 -141,99zm-167 127l-69 0c11,-14 21,-27 30,-41 13,-19 26,-39 38,-59l142 0c-21,58 -76,100 -141,100zm-285 9c3,0 5,-1 7,-2 52,-31 97,-83 131,-133 42,-61 93,-162 110,-235 1,-4 0,-9 -4,-12 -17,-17 -34,-34 -50,-52 -16,-16 -32,-32 -48,-48 -3,-4 -8,-5 -13,-4 -87,26 -178,26 -265,0 -5,-1 -10,0 -14,4 -16,16 -31,32 -47,48 -17,18 -33,35 -51,52 -3,3 -4,8 -3,12 16,73 68,174 110,235 34,50 79,102 131,133 2,1 4,2 6,2zm-215 -372c14,-15 27,-29 41,-43 13,-13 25,-26 38,-39l4 -4 5 2c84,22 171,22 254,0l6 -2 4 4c13,13 25,26 37,39 14,14 28,28 42,43l4 4 -1 5c-19,67 -64,157 -103,213 -29,43 -67,87 -110,117l-6 4 -5 -4c-43,-30 -81,-74 -110,-117 -39,-56 -85,-146 -103,-213l-2 -5 5 -4z"/>
  </g>
</svg>
